<?xml version="1.0" standalone="no"?>
<!DOCTYPE svg PUBLIC "-//W3C//DTD SVG 20010904//EN"
 "http://www.w3.org/TR/2001/REC-SVG-20010904/DTD/svg10.dtd">
<svg version="1.0" xmlns="http://www.w3.org/2000/svg"
 width="400.000000pt" height="400.000000pt" viewBox="0 0 400.000000 400.000000"
 preserveAspectRatio="xMidYMid meet">

<g transform="translate(0.000000,400.000000) scale(0.100000,-0.100000)"
fill="#000000" stroke="none">
<path d="M605 3993 c-239 -33 -458 -204 -549 -429 -59 -144 -57 -92 -54 -1604
3 -1302 5 -1389 22 -1445 61 -204 220 -381 412 -459 144 -59 92 -57 1604 -54
1302 3 1389 5 1445 22 204 61 381 220 459 412 59 144 57 92 54 1604 -3 1302
-5 1389 -22 1445 -61 204 -220 381 -412 459 -142 58 -91 56 -1571 55 -747 -1
-1371 -4 -1388 -6z m1829 -1226 c225 -90 356 -287 356 -537 0 -170 -49 -292
-164 -406 -81 -81 -164 -126 -271 -149 -99 -21 -611 -21 -710 0 -204 43 -373
207 -420 407 -11 49 -15 137 -15 391 l0 328 578 -3 577 -3 69 -28z m-706
-1196 c150 -77 148 -282 -3 -352 -35 -16 -68 -19 -277 -19 l-238 0 0 118 c0
127 14 176 61 218 55 49 75 53 252 54 146 0 173 -2 205 -19z"/>
</g>
</svg>
